# xmcd CD database file
#
# Track frame offsets:
#	150
#	24620
#	40755
#	62127
#	85287
#	103302
#	119135
#	153322
#	188402
#	207650
#	228792
#	250930
#	268927
#	285835
#
# Disc length: 4040 seconds
#
# Revision: 0
# Processed by: cddbd v1.5.2PL0 Copyright (c) Steve Scherf et al.
# Submitted via: CDex 1.51
#
DISCID=c50fc60e
DTITLE=sammy cahn - jazz giants play
DYEAR=1999
DGENRE=Jazz
TTITLE0=wonder why
TTITLE1=be my love
TTITLE2=until the reals thing comes along
TTITLE3=please be kind
TTITLE4=i´ll walk alone
TTITLE5=i should care
TTITLE6=all the way
TTITLE7=time after time
TTITLE8=it`s you or no one
TTITLE9=the things we did last summer
TTITLE10=if it`s the last thing i do
TTITLE11=teach me tonight
TTITLE12=second time around
TTITLE13=pete kelly`s blues
EXTD=YEAR: 1999
EXTT0=
EXTT1=
EXTT2=
EXTT3=
EXTT4=
EXTT5=
EXTT6=
EXTT7=
EXTT8=
EXTT9=
EXTT10=
EXTT11=
EXTT12=
EXTT13=
PLAYORDER=
